<svg xmlns="http://www.w3.org/2000/svg" width="144" height="144"
  viewBox="0 0 144 144">
  <rect width="144" height="144" rx="20" fill="#000000" />
  <rect x="0.5" y="0.5" width="143" height="143" rx="19.5" fill="none"
    stroke="#ffffff" stroke-opacity="0.1" stroke-width="1" />

  <g transform="translate(25.4,27.2) scale(1.4)">
    <g transform="translate(0.000000,64.000000) scale(0.100000,-0.100000)"
      fill="#ffffff" stroke="none">
      <path d="M216 575 c-134 -47 -179 -223 -85 -330 32 -36 62 -51 79 -40 7 4 -7
      26 -34 55 -74 79 -75 163 -2 236 69 70 157 72 228 5 29 -26 44 -51 52 -86 13
      -51 31 -68 42 -40 13 32 -19 108 -62 151 -61 61 -136 78 -218 49z" />
      <path
        d="M232 483 c-55 -27 -82 -112 -48 -158 19 -26 51 -13 36 14 -17 33 -11
      71 15 96 31 32 66 32 103 0 37 -31 54 -32 50 -3 -4 28 -62 68 -97 68 -14 0
      -41 -8 -59 -17z" />
      <path
        d="M287 373 c-11 -11 -8 -301 3 -308 18 -11 45 5 80 50 34 43 35 44 100
      47 62 3 65 4 65 28 0 19 -22 42 -105 107 -98 77 -127 93 -143 76z" />
    </g>
  </g>
</svg>
